<?xml version="1.0" encoding="utf-8"?>
<!-- Generator: Adobe Illustrator 25.4.1, SVG Export Plug-In . SVG Version: 6.00 Build 0)  -->
<svg version="1.1" id="Layer_1" xmlns="http://www.w3.org/2000/svg" xmlns:xlink="http://www.w3.org/1999/xlink" x="0px" y="0px"
	 viewBox="0 0 1179.3 346.3" style="enable-background:new 0 0 1179.3 346.3;" xml:space="preserve">
<style type="text/css">
	.st0{fill:none;stroke:#FFFFFF;stroke-width:3.5;stroke-miterlimit:10;}
	.st1{fill:#FFFFFF;}
</style>
<g>
	<path class="st0" d="M6.6,340.1V6.3h1163.3v333.8H6.6z"/>
	<g>
		<g>
			<g>
				<g>
					<path class="st1" d="M198.8,210.6c-1.3,0.4-3.3,0.7-6.1,1.1c-2.8,0.4-5.5,0.5-8.2,0.5c-2.7,0-5.1-0.2-7.1-0.6
						c-2.1-0.4-3.8-1.1-5.2-2.2c-1.4-1.1-2.5-2.5-3.2-4.4c-0.7-1.9-1.1-4.3-1.1-7.4v-27.4h-33.7v40.4c-1.3,0.4-3.3,0.7-6.1,1.1
						c-2.8,0.4-5.5,0.5-8.2,0.5c-2.7,0-5.1-0.2-7.1-0.6c-2.1-0.4-3.8-1.1-5.2-2.2c-1.4-1.1-2.5-2.5-3.2-4.4
						c-0.7-1.9-1.1-4.3-1.1-7.4v-92.8c1.3-0.2,3.3-0.6,6.2-1c2.8-0.4,5.5-0.6,8.1-0.6c2.7,0,5.1,0.2,7.1,0.6
						c2.1,0.4,3.8,1.1,5.2,2.2c1.4,1.1,2.5,2.5,3.2,4.4c0.7,1.9,1.1,4.3,1.1,7.4v28.1H168v-41.1c1.3-0.2,3.3-0.6,6.2-1
						c2.8-0.4,5.5-0.6,8.1-0.6c2.7,0,5.1,0.2,7.1,0.6c2.1,0.4,3.8,1.1,5.2,2.2c1.4,1.1,2.5,2.5,3.2,4.4c0.7,1.9,1.1,4.3,1.1,7.4
						V210.6z"/>
					<path class="st1" d="M245.6,127.1c1.2-0.4,3-0.7,5.5-1.1c2.5-0.4,5.1-0.5,7.8-0.5c2.6,0,4.9,0.2,6.9,0.5
						c2.1,0.4,3.8,1.1,5.2,2.1c1.4,1.1,2.5,2.5,3.3,4.3c0.8,1.8,1.1,4.2,1.1,7.1v37.8c0,4.8,1.2,8.2,3.5,10.3
						c2.3,2.1,5.7,3.1,10.2,3.1c2.7,0,4.9-0.2,6.6-0.7c1.7-0.5,3-0.9,4-1.4v-61.5c1.2-0.4,3-0.7,5.5-1.1c2.5-0.4,5.1-0.5,7.8-0.5
						c2.6,0,4.9,0.2,6.9,0.5c2.1,0.4,3.8,1.1,5.2,2.1c1.4,1.1,2.5,2.5,3.3,4.3s1.1,4.2,1.1,7.1V193c0,5.9-2.5,10.3-7.4,13.2
						c-4.1,2.6-9,4.5-14.7,5.9c-5.7,1.3-11.9,2-18.5,2c-6.3,0-12.2-0.7-17.5-2.1s-9.9-3.6-13.8-6.5c-3.9-2.9-6.9-6.7-9-11.3
						c-2.1-4.6-3.2-10.2-3.2-16.8L245.6,127.1z"/>
					<path class="st1" d="M419.2,214.1c-6.9,0-13.3-1-19.2-2.9c-5.9-1.9-11.1-4.8-15.5-8.7c-4.4-3.9-7.9-8.7-10.4-14.6
						c-2.5-5.9-3.8-12.7-3.8-20.6c0-7.7,1.3-14.4,3.8-20s5.8-10.1,9.9-13.7c4.1-3.6,8.8-6.2,14.1-7.9c5.3-1.7,10.7-2.5,16.2-2.5
						c6.2,0,11.9,0.9,17,2.8c5.1,1.9,9.5,4.5,13.2,7.7s6.6,7.2,8.6,11.8s3.1,9.6,3.1,14.9c0,4-1.1,7-3.3,9.1c-2.2,2.1-5.3,3.5-9.3,4
						l-43.4,6.5c1.3,3.9,3.9,6.8,7.9,8.7c4,1.9,8.6,2.9,13.7,2.9c4.8,0,9.3-0.6,13.6-1.8c4.3-1.2,7.8-2.7,10.5-4.3
						c1.9,1.2,3.5,2.8,4.7,4.9c1.3,2.1,1.9,4.3,1.9,6.7c0,5.3-2.5,9.2-7.4,11.8c-3.7,2-8,3.3-12.7,4
						C427.7,213.8,423.3,214.1,419.2,214.1 M414.3,145c-2.8,0-5.2,0.5-7.3,1.4c-2.1,0.9-3.7,2.1-5,3.6c-1.3,1.5-2.3,3.1-2.9,4.9
						c-0.6,1.8-1,3.7-1.1,5.5l30.1-4.9c-0.4-2.3-1.6-4.7-3.9-7C421.9,146.2,418.6,145,414.3,145L414.3,145z"/>
					<path class="st1" d="M493.2,197.1c0-4.9,1.5-9,4.6-12.3c3-3.3,7.2-4.9,12.5-4.9c5.3,0,9.4,1.6,12.5,4.9c3,3.3,4.6,7.4,4.6,12.3
						s-1.5,9-4.6,12.3c-3,3.3-7.2,4.9-12.5,4.9c-5.3,0-9.4-1.6-12.5-4.9S493.2,202,493.2,197.1z M493.2,141.9c0-4.9,1.5-9,4.6-12.3
						c3-3.3,7.2-4.9,12.5-4.9c5.3,0,9.4,1.6,12.5,4.9c3,3.3,4.6,7.4,4.6,12.3c0,4.9-1.5,9-4.6,12.3c-3,3.3-7.2,4.9-12.5,4.9
						c-5.3,0-9.4-1.6-12.5-4.9S493.2,146.8,493.2,141.9"/>
					<path class="st1" d="M644.2,185.1c-1.5,1.3-3.5,2.3-5.9,3.1s-5.2,1.1-8.3,1.1c-4.2,0-7.7-0.5-10.5-1.6
						c-2.8-1.1-4.5-2.9-5.4-5.4c-3.3-10.3-6-18.7-8.1-25s-3.8-12-4.9-16.8h-0.9c-0.4,6.9-0.6,13.2-0.8,18.9
						c-0.2,5.7-0.3,11.2-0.4,16.6c-0.1,5.4-0.2,10.8-0.4,16.3c-0.2,5.5-0.4,11.6-0.8,18.3c-1.5,0.6-3.5,1.1-6,1.5
						c-2.5,0.4-4.9,0.6-7.4,0.6c-5.2,0-9.2-0.8-12-2.5c-2.9-1.6-4.3-4.6-4.3-9l5.1-89.6c0.9-1.5,3-3.2,6.2-4.9
						c3.2-1.8,7.6-2.6,13.4-2.6c6.2,0,11.1,1,14.6,2.9c3.5,1.9,6.1,5.1,7.7,9.4c1.1,2.8,2.2,6,3.4,9.7c1.2,3.6,2.5,7.4,3.7,11.2
						c1.2,3.9,2.4,7.7,3.6,11.5c1.2,3.8,2.2,7.2,3.2,10.3h0.9c2.8-9.8,5.6-19.4,8.4-28.6s5.4-16.9,7.7-23.1c1.8-0.9,4-1.7,6.8-2.4
						c2.8-0.6,5.8-1,9.2-1c5.7,0,10.4,0.8,14.1,2.5c3.6,1.7,5.7,4.1,6.3,7.3c0.5,2.3,1,5.9,1.5,10.8c0.5,4.9,1.1,10.3,1.7,16.4
						c0.6,6.1,1.2,12.5,1.8,19.3c0.6,6.8,1.1,13.3,1.7,19.6c0.5,6.3,1,12,1.3,17.2c0.4,5.2,0.6,9.2,0.7,12c-2,1.2-4.1,2-6.2,2.5
						c-2.2,0.5-5,0.8-8.3,0.8c-4.5,0-8.2-0.8-11.2-2.3c-3-1.5-4.7-4.5-4.9-9c-0.7-12.8-1.1-24.3-1.3-34.5
						c-0.2-10.2-0.4-18.7-0.8-25.7h-0.9c-1.2,4.6-2.9,10.3-5.1,17.2C650.1,165.5,647.4,174.3,644.2,185.1L644.2,185.1z"/>
					<path class="st1" d="M734.6,127.1c1.2-0.4,3-0.7,5.5-1.1c2.5-0.4,5.1-0.5,7.8-0.5c2.6,0,4.9,0.2,6.9,0.5
						c2.1,0.4,3.8,1.1,5.2,2.1c1.4,1.1,2.5,2.5,3.3,4.3c0.8,1.8,1.1,4.2,1.1,7.1v37.8c0,4.8,1.2,8.2,3.5,10.3
						c2.3,2.1,5.7,3.1,10.2,3.1c2.7,0,4.9-0.2,6.6-0.7c1.7-0.5,3-0.9,4-1.4v-61.5c1.2-0.4,3-0.7,5.5-1.1c2.5-0.4,5.1-0.5,7.8-0.5
						c2.6,0,4.9,0.2,6.9,0.5c2.1,0.4,3.8,1.1,5.2,2.1c1.4,1.1,2.5,2.5,3.3,4.3c0.8,1.8,1.1,4.2,1.1,7.1V193c0,5.9-2.5,10.3-7.4,13.2
						c-4.1,2.6-9,4.5-14.7,5.9c-5.7,1.3-11.9,2-18.5,2c-6.3,0-12.2-0.7-17.5-2.1s-9.9-3.6-13.8-6.5c-3.9-2.9-6.9-6.7-9-11.3
						s-3.2-10.2-3.2-16.8L734.6,127.1z"/>
					<path class="st1" d="M917.2,157.2c0-3.6-1-6.3-3.1-8c-2.1-1.7-4.8-2.5-8.3-2.5c-2.3,0-4.7,0.3-6.9,0.9
						c-2.3,0.6-4.2,1.5-5.9,2.6v61c-1.2,0.4-3,0.7-5.5,1.1s-5.1,0.5-7.8,0.5c-2.6,0-4.9-0.2-6.9-0.5c-2.1-0.4-3.8-1.1-5.2-2.1
						c-1.4-1.1-2.5-2.5-3.3-4.3c-0.8-1.8-1.1-4.2-1.1-7.1v-52.7c0-3.2,0.7-5.7,2-7.7c1.3-2,3.2-3.8,5.5-5.4c4-2.8,9-5.1,15-6.9
						c6-1.8,12.7-2.6,20.1-2.6c13.2,0,23.4,2.9,30.6,8.7c7.1,5.8,10.7,13.9,10.7,24.2v55c-1.2,0.4-3,0.7-5.5,1.1s-5.1,0.5-7.8,0.5
						c-2.6,0-4.9-0.2-6.9-0.5s-3.8-1.1-5.2-2.1c-1.4-1.1-2.5-2.5-3.3-4.3c-0.8-1.8-1.1-4.2-1.1-7.1V157.2z"/>
					<path class="st1" d="M1033.4,123.3c6.7,0,12.7,0.8,18.2,2.5c5.4,1.7,10,3.9,13.8,6.6c2.3,1.6,4.2,3.5,5.5,5.4s2,4.6,2,7.7v61.5
						c0,6.2-1.2,11.6-3.5,16.1c-2.3,4.5-5.5,8.3-9.6,11.2c-4,3-8.8,5.2-14.2,6.6c-5.4,1.4-11.3,2.1-17.5,2.1
						c-10.7,0-19-1.4-25.1-4.3c-6.1-2.9-9.1-7.5-9.1-14c0-2.7,0.6-5.1,1.7-7.1c1.1-2.1,2.4-3.6,3.8-4.7c3.4,1.9,7.2,3.5,11.5,4.7
						c4.3,1.3,8.7,1.9,13.3,1.9c6.3,0,11.4-1.1,15.1-3.2c3.7-2.1,5.6-5.5,5.6-10.2v-2.8c-4.8,2.1-10.7,3.2-17.6,3.2
						c-5.3,0-10.3-0.8-15-2.4c-4.7-1.6-8.9-4-12.5-7.4c-3.6-3.3-6.4-7.6-8.6-12.9c-2.2-5.3-3.3-11.5-3.3-18.8
						c0-7.1,1.1-13.4,3.4-18.6c2.3-5.3,5.4-9.6,9.5-13.1c4-3.5,8.8-6,14.4-7.7C1020.8,124.1,1026.8,123.3,1033.4,123.3
						 M1044.3,148.7c-0.8-0.5-2-0.9-3.6-1.4s-3.5-0.7-5.9-0.7c-5.7,0-10,1.6-12.9,4.8c-2.9,3.2-4.3,7.8-4.3,13.8
						c0,6.8,1.4,11.7,4.3,14.7c2.9,3,6.5,4.5,11,4.5c4.8,0,8.6-1.1,11.4-3.3V148.7z"/>
				</g>
			</g>
		</g>
	</g>
</g>
</svg>
